<?xml version="1.0" standalone="no"?>
<!DOCTYPE svg PUBLIC "-//W3C//DTD SVG 20010904//EN"
 "http://www.w3.org/TR/2001/REC-SVG-20010904/DTD/svg10.dtd">
<svg version="1.0" xmlns="http://www.w3.org/2000/svg"
 width="155.000000pt" height="20.000000pt" viewBox="0 0 155.000000 20.000000"
 preserveAspectRatio="xMidYMid meet">

<g transform="translate(0.000000,20.000000) scale(0.100000,-0.100000)"
fill="#000000" stroke="none">
<path d="M89 161 l44 -29 -33 -17 c-26 -14 -38 -15 -58 -6 -34 16 -37 9 -7
-19 l25 -23 91 34 c109 41 113 43 106 62 -4 12 -12 13 -45 4 -32 -8 -48 -7
-84 6 -71 27 -90 21 -39 -12z"/>
<path d="M962 168 c44 -67 43 -62 14 -112 -22 -37 -24 -46 -11 -46 9 0 24 13
33 30 21 37 28 37 47 0 9 -18 23 -30 35 -30 20 0 19 1 -3 38 -13 20 -26 42
-30 48 -3 6 5 27 18 47 29 42 30 47 10 47 -8 0 -21 -13 -30 -30 -9 -16 -18
-30 -20 -30 -2 0 -11 14 -20 30 -10 19 -23 30 -36 30 -20 0 -20 -2 -7 -22z"/>
<path d="M1140 100 c0 -73 3 -90 15 -90 10 0 15 11 15 35 0 34 1 35 39 35 63
0 89 40 55 88 -12 18 -25 22 -70 22 l-54 0 0 -90z m94 54 c24 -23 4 -54 -34
-54 -28 0 -30 3 -30 35 0 30 3 35 24 35 14 0 32 -7 40 -16z"/>
<path d="M1437 130 c-20 -16 -27 -30 -27 -55 0 -63 74 -94 120 -49 7 7 14 30
14 49 0 62 -59 93 -107 55z m72 -32 c12 -32 -2 -62 -29 -66 -26 -4 -40 12 -40
49 0 32 7 39 37 39 15 0 27 -8 32 -22z"/>
<path d="M1310 75 c0 -51 3 -65 15 -65 11 0 15 12 15 45 0 39 4 47 25 57 14 6
25 15 25 20 0 12 -24 10 -38 -4 -9 -9 -12 -9 -12 0 0 7 -7 12 -15 12 -12 0
-15 -14 -15 -65z"/>
<path d="M15 20 c4 -6 57 -10 126 -10 73 0 119 4 119 10 0 6 -49 10 -126 10
-81 0 -123 -4 -119 -10z"/>
</g>
</svg>
